<svg width="41" height="14" viewBox="0 0 41 14" fill="none" xmlns="http://www.w3.org/2000/svg">
<g id="Asset 1 1" clip-path="url(#clip0_46_6)">
<g id="Layer_1-2">
<path id="Vector" fill-rule="evenodd" clip-rule="evenodd" d="M4.02255 13.0948C4.59068 9.47892 2.78932 6.52206 0 6.4912C2.78932 6.52206 5.51132 3.6159 6.07945 0C5.51132 3.6159 7.31269 6.57276 10.102 6.60361C7.31269 6.57276 4.59068 9.47892 4.02255 13.0948Z" fill="#D9D9D9"/>
<path id="Vector_2" fill-rule="evenodd" clip-rule="evenodd" d="M14.1246 13.0948C14.6927 9.47892 12.8914 6.52206 10.1021 6.4912C12.8914 6.52206 15.6134 3.6159 16.1815 0C15.6134 3.6159 17.4147 6.57276 20.2041 6.60361C17.4147 6.57276 14.6927 9.47892 14.1246 13.0948Z" fill="#D9D9D9"/>
<path id="Vector_3" fill-rule="evenodd" clip-rule="evenodd" d="M24.2266 13.0948C24.7948 9.47892 22.9934 6.52206 20.2041 6.4912C22.9946 6.52206 25.7166 3.6159 26.2847 0C25.7166 3.6159 27.5179 6.57276 30.3072 6.60361C27.5179 6.57276 24.7959 9.47892 24.2278 13.0948H24.2266Z" fill="#D9D9D9"/>
<path id="Vector_4" fill-rule="evenodd" clip-rule="evenodd" d="M34.3297 13.0948C34.8978 9.47892 33.0964 6.52206 30.3071 6.4912C33.0976 6.52206 35.8196 3.6159 36.3877 0C35.8196 3.6159 37.621 6.57276 40.4103 6.60361C37.621 6.57276 34.8989 9.47892 34.3308 13.0948H34.3297Z" fill="#D9D9D9"/>
</g>
</g>
<defs>
<clipPath id="clip0_46_6">
<rect width="40.4069" height="13.0948" fill="white"/>
</clipPath>
</defs>
</svg>
