<svg width="40" height="40" viewBox="0 0 40 40" fill="none" xmlns="http://www.w3.org/2000/svg">
<g id="RiInstagramLine 1">
<path id="Vector" d="M19.9999 15.0002C18.6738 15.0002 17.4021 15.5269 16.4644 16.4646C15.5267 17.4023 14.9999 18.6741 14.9999 20.0002C14.9999 21.3262 15.5267 22.598 16.4644 23.5357C17.4021 24.4734 18.6738 25.0002 19.9999 25.0002C21.326 25.0002 22.5978 24.4734 23.5355 23.5357C24.4731 22.598 24.9999 21.3262 24.9999 20.0002C24.9999 18.6741 24.4731 17.4023 23.5355 16.4646C22.5978 15.5269 21.326 15.0002 19.9999 15.0002ZM19.9999 11.6668C22.2101 11.6668 24.3297 12.5448 25.8925 14.1076C27.4553 15.6704 28.3333 17.79 28.3333 20.0002C28.3333 22.2103 27.4553 24.3299 25.8925 25.8927C24.3297 27.4555 22.2101 28.3335 19.9999 28.3335C17.7898 28.3335 15.6702 27.4555 14.1074 25.8927C12.5446 24.3299 11.6666 22.2103 11.6666 20.0002C11.6666 17.79 12.5446 15.6704 14.1074 14.1076C15.6702 12.5448 17.7898 11.6668 19.9999 11.6668ZM30.8333 11.2502C30.8333 11.8027 30.6138 12.3326 30.2231 12.7233C29.8324 13.114 29.3025 13.3335 28.7499 13.3335C28.1974 13.3335 27.6675 13.114 27.2768 12.7233C26.8861 12.3326 26.6666 11.8027 26.6666 11.2502C26.6666 10.6976 26.8861 10.1677 27.2768 9.77702C27.6675 9.38632 28.1974 9.16683 28.7499 9.16683C29.3025 9.16683 29.8324 9.38632 30.2231 9.77702C30.6138 10.1677 30.8333 10.6976 30.8333 11.2502ZM19.9999 6.66683C15.8766 6.66683 15.2033 6.6785 13.2849 6.7635C11.9783 6.82516 11.1016 7.00016 10.2883 7.31683C9.60761 7.56673 8.99227 7.96727 8.48825 8.4885C7.9666 8.99249 7.56551 9.6078 7.31492 10.2885C6.99825 11.1052 6.82325 11.9802 6.76325 13.2852C6.67659 15.1252 6.66659 15.7685 6.66659 20.0002C6.66659 24.1235 6.67825 24.7968 6.76325 26.7152C6.82492 28.0202 6.99992 28.8985 7.31492 29.7102C7.59825 30.4352 7.93159 30.9568 8.48492 31.5102C9.04659 32.0702 9.56825 32.4052 10.2849 32.6818C11.1083 33.0002 11.9849 33.1768 13.2849 33.2368C15.1249 33.3235 15.7683 33.3335 19.9999 33.3335C24.1233 33.3335 24.7966 33.3218 26.7149 33.2368C28.0183 33.1752 28.8966 33.0002 29.7099 32.6852C30.3895 32.434 31.0045 32.0343 31.5099 31.5152C32.0716 30.9535 32.4066 30.4318 32.6833 29.7152C32.9999 28.8935 33.1766 28.0152 33.2366 26.7152C33.3233 24.8752 33.3333 24.2318 33.3333 20.0002C33.3333 15.8768 33.3216 15.2035 33.2366 13.2852C33.1749 11.9818 32.9999 11.1018 32.6833 10.2885C32.4321 9.6085 32.0317 8.99343 31.5116 8.4885C31.0078 7.96657 30.3924 7.56544 29.7116 7.31516C28.8949 6.9985 28.0183 6.8235 26.7149 6.7635C24.8749 6.67683 24.2316 6.66683 19.9999 6.66683ZM19.9999 3.3335C24.5283 3.3335 25.0933 3.35016 26.8699 3.4335C28.6449 3.51683 29.8533 3.79516 30.9166 4.2085C32.0166 4.63183 32.9433 5.20516 33.8699 6.13016C34.7174 6.96332 35.3732 7.97114 35.7916 9.0835C36.2033 10.1452 36.4833 11.3552 36.5666 13.1302C36.6449 14.9068 36.6666 15.4718 36.6666 20.0002C36.6666 24.5285 36.6499 25.0935 36.5666 26.8702C36.4833 28.6452 36.2033 29.8535 35.7916 30.9168C35.3744 32.0298 34.7185 33.0379 33.8699 33.8702C33.0365 34.7174 32.0288 35.3731 30.9166 35.7918C29.8549 36.2035 28.6449 36.4835 26.8699 36.5668C25.0933 36.6452 24.5283 36.6668 19.9999 36.6668C15.4716 36.6668 14.9066 36.6502 13.1299 36.5668C11.3549 36.4835 10.1466 36.2035 9.08325 35.7918C7.97046 35.3743 6.96246 34.7184 6.12992 33.8702C5.28226 33.0371 4.62647 32.0293 4.20825 30.9168C3.79492 29.8552 3.51659 28.6452 3.43325 26.8702C3.35492 25.0935 3.33325 24.5285 3.33325 20.0002C3.33325 15.4718 3.34992 14.9068 3.43325 13.1302C3.51659 11.3535 3.79492 10.1468 4.20825 9.0835C4.62531 7.97046 5.28126 6.96236 6.12992 6.13016C6.9627 5.28221 7.97063 4.62638 9.08325 4.2085C10.1466 3.79516 11.3533 3.51683 13.1299 3.4335C14.9066 3.35516 15.4716 3.3335 19.9999 3.3335Z" fill="#B5964D"/>
</g>
</svg>
