<svg width="40" height="40" viewBox="0 0 40 40" fill="none" xmlns="http://www.w3.org/2000/svg">
<g id="RiLinkedinLine 1">
<path id="Vector" d="M20 15.9168C21.5284 14.3552 23.5184 13.3335 25.8334 13.3335C28.2645 13.3335 30.5961 14.2993 32.3152 16.0183C34.0343 17.7374 35 20.069 35 22.5002V35.0002H31.6667V22.5002C31.6667 20.9531 31.0521 19.4693 29.9582 18.3754C28.8642 17.2814 27.3805 16.6668 25.8334 16.6668C24.2863 16.6668 22.8025 17.2814 21.7086 18.3754C20.6146 19.4693 20 20.9531 20 22.5002V35.0002H16.6667V14.1668H20V15.9168ZM8.33337 10.8335C7.67033 10.8335 7.03445 10.5701 6.56561 10.1013C6.09677 9.63242 5.83337 8.99654 5.83337 8.3335C5.83337 7.67045 6.09677 7.03457 6.56561 6.56573C7.03445 6.09689 7.67033 5.8335 8.33337 5.8335C8.99641 5.8335 9.6323 6.09689 10.1011 6.56573C10.57 7.03457 10.8334 7.67045 10.8334 8.3335C10.8334 8.99654 10.57 9.63242 10.1011 10.1013C9.6323 10.5701 8.99641 10.8335 8.33337 10.8335ZM6.66671 14.1668H10V35.0002H6.66671V14.1668Z" fill="#B5964D"/>
</g>
</svg>
