<svg width="40" height="40" viewBox="0 0 40 40" fill="none" xmlns="http://www.w3.org/2000/svg">
<g id="TablerBrandMeta 1">
<path id="Vector" d="M20 16.9567C22.9433 12.3167 25.525 10 27.7467 10C31.08 10 33.185 13.6883 34.4133 18.695C35.5867 23.4767 35.2467 30 31.08 30C29.2233 30 26.6667 27.3917 24.1667 23.9133C22.5759 21.7215 21.1816 19.3936 20 16.9567ZM20 16.9567C17.0567 12.3167 14.475 10 12.2533 10C8.91999 10 6.81499 13.6883 5.58665 18.695C4.41332 23.4767 4.75332 30 8.91999 30C10.7767 30 13.3333 27.3917 15.8333 23.9133C17.5 21.595 18.8883 19.275 20 16.9567Z" stroke="#B5964D" stroke-width="2.66667" stroke-linecap="round" stroke-linejoin="round"/>
</g>
</svg>
