<svg width="1065" height="972" viewBox="0 0 1065 972" fill="none" xmlns="http://www.w3.org/2000/svg">
<path d="M243.909 370.133C275.342 359.365 308.327 352.459 338.493 338.941C368.659 325.423 396.896 303.003 402.268 276.937C406.95 254.243 393.248 233.527 373.536 219.755C319.682 181.997 218.393 194.553 164.678 245.576C143.809 265.399 129.438 289.826 103.922 305.692C71.496 325.872 27.5189 328.139 -3.68058 349.595C-34.2485 370.605 -44.1172 404.395 -43.6119 434.011C-43.2059 458.222 -37.0236 482.306 -19.9196 500.357C-8.18833 512.742 10.2652 522.218 31.3329 519.868C60.0529 516.664 81.9553 493.79 96.1675 472.358C130.169 421.038 176.846 393.11 243.909 370.133Z" stroke="#B5964D" stroke-opacity="0.04" stroke-width="3" stroke-miterlimit="10"/>
<path d="M-60.716 446.478C-60.3614 471.581 -53.4734 496.445 -35.4561 514.932C-23.1011 527.604 -3.98075 537.158 17.8553 535.062C48.4861 532.141 72.965 509.647 89.6881 487.863C100.094 474.19 111.978 461.151 125.179 448.923C131.489 443.113 138.014 437.593 144.755 432.363C173.775 409.742 208.405 394.227 250.293 380.18C264.497 375.411 279.122 371.051 293.368 366.418C313.022 360.08 334.082 351.972 348.744 342.454C351.074 340.946 353.27 339.479 355.427 337.969C358.523 335.779 361.514 333.491 364.673 330.994C374.011 323.686 382.947 316.057 391.446 308.137C406.013 294.254 417.016 277.894 418.186 261.257C419.886 237.463 403.733 217.267 381.45 204.6C366.268 196.036 348.464 190.447 329.209 188.2C309.312 185.834 288.136 186.908 266.644 190.153C225.716 196.341 184.615 211.548 155.115 237.15C132.276 256.936 115.665 281.723 88.7347 298.553C54.4363 320.024 9.14808 324.361 -20.1311 348.706C-31.529 358.155 -38.6755 369.658 -44.6987 381.947C-54.7467 402.491 -60.9531 425.222 -60.716 446.478Z" stroke="#B5964D" stroke-opacity="0.04" stroke-width="3" stroke-miterlimit="10"/>
<path d="M-77.8461 458.963C-77.6098 484.98 -69.9714 510.61 -51.0226 529.512C-38.0295 542.475 -18.2581 552.133 4.34776 550.291C36.8992 547.639 63.9639 525.512 83.198 503.375C95.3096 489.378 108.543 475.946 122.797 463.182C129.663 457.047 136.675 451.17 143.831 445.552C175.057 420.814 212.08 404.933 256.696 390.147C273.137 384.726 290.232 379.484 306.591 373.837C328.762 366.138 353.771 355.029 366.854 342.636C368.911 340.683 370.733 338.839 372.467 336.949C374.933 334.229 377.257 331.441 379.973 328.347C387.182 320.087 397.381 310.246 406.949 300.34C422.711 283.861 434.913 264.486 434.179 245.533C433.221 220.695 414.337 200.974 389.448 189.384C372.484 181.581 353.129 176.932 332.584 175.725C311.274 174.418 288.998 176.892 266.059 180.732C222.338 188.043 178.189 202.685 145.555 228.786C120.73 248.606 101.83 273.752 73.402 291.637C37.2291 314.399 -9.35299 321.069 -36.7908 348.02C-48.0784 359.116 -53.7994 372.295 -59.6584 386.25C-69.3066 409.491 -78.0827 434.915 -77.8461 458.963Z" stroke="#B5964D" stroke-opacity="0.04" stroke-width="3" stroke-miterlimit="10"/>
<path d="M-95.0199 471.453C-94.8296 498.382 -86.4269 524.785 -66.6046 544.11C-52.9867 557.361 -32.5329 567.103 -9.1787 565.521C25.3251 563.121 54.9522 541.441 76.7037 518.892C90.4935 504.593 105.084 490.756 120.419 477.434C127.819 471.004 135.302 464.776 142.867 458.747C176.29 431.903 215.753 415.642 263.032 400.258C281.732 394.177 301.28 388.076 319.722 381.36C344.403 372.358 373.434 358.17 384.832 342.909C386.5 340.675 388.012 338.382 389.358 336.043C391.232 332.791 392.887 329.504 395.161 325.813C401.162 315.985 411.952 304.199 422.268 292.614C439.229 273.557 452.753 251.167 449.966 229.887C446.624 204.014 424.794 184.75 397.241 174.244C378.531 167.188 357.638 163.455 335.797 163.265C313.069 163.047 289.742 166.923 265.287 171.333C218.785 179.772 171.594 193.866 135.82 220.45C109.205 240.227 87.9739 265.717 58.0948 284.614C20.0465 308.668 -27.7064 317.836 -53.4019 347.238C-64.5778 360.026 -68.8591 374.812 -74.5116 390.373C-83.8831 416.507 -95.1341 444.613 -95.0199 471.453Z" stroke="#B5964D" stroke-opacity="0.04" stroke-width="3" stroke-miterlimit="10"/>
<path d="M-112.157 484C-112.049 511.846 -102.957 539.013 -82.1988 558.757C-67.948 572.315 -46.8447 582.219 -22.6776 580.815C13.7177 578.761 45.8387 557.361 70.2191 534.465C86.0112 519.668 101.942 505.359 118.06 491.734C126.026 485 134 478.399 141.983 471.933C177.663 442.907 219.509 426.374 269.466 410.286C290.429 403.545 312.454 396.606 332.977 388.802C360.215 378.436 393.229 361.256 402.947 343.094C404.348 340.457 405.498 337.767 406.388 335.049C407.655 331.259 408.643 327.472 410.467 323.195C415.327 311.732 426.696 298.067 437.78 284.824C455.967 263.178 470.888 237.812 465.975 214.159C460.391 187.239 435.462 168.419 405.237 159.024C384.788 152.706 362.347 149.884 339.185 150.718C315.052 151.564 290.565 156.82 264.676 161.848C215.406 171.409 165.19 184.968 126.268 212.04C97.7858 231.826 74.2318 257.625 42.9198 277.577C3.00166 302.932 -45.8235 314.715 -69.9139 346.465C-80.9287 360.996 -83.8731 377.339 -89.3185 394.555C-98.5289 423.575 -112.267 454.334 -112.157 484Z" stroke="#B5964D" stroke-opacity="0.04" stroke-width="3" stroke-miterlimit="10"/>
<path d="M-129.29 496.582C-129.25 525.354 -119.433 553.285 -97.7255 573.483C-82.8371 587.32 -61.0447 597.312 -36.1303 596.179C2.20834 594.428 36.8615 573.38 63.8219 550.086C81.1546 535.129 98.5314 520.354 115.794 506.078C124.308 499.033 132.742 492.098 141.096 485.275C178.989 454.153 223.327 437.205 276.018 420.414C299.231 413.006 323.744 405.217 346.342 396.337C376.104 384.682 413.16 364.453 421.186 343.384C422.329 340.323 423.123 337.226 423.558 334.135C424.023 329.651 424.814 325.152 425.928 320.661C429.598 307.604 441.512 291.986 453.435 277.109C472.841 252.884 489.302 224.515 482.113 198.523C474.343 170.499 446.233 152.183 413.427 143.887C391.232 138.321 367.235 136.405 342.732 138.244C317.188 140.184 291.587 146.822 264.243 152.447C212.177 163.139 158.958 176.174 116.774 203.696C86.4359 223.498 60.4825 249.685 27.689 270.588C-14.1459 297.306 -63.9636 311.782 -86.527 345.794C-97.3491 362.097 -98.9619 379.982 -104.22 398.832C-113.054 430.609 -129.355 464.103 -129.29 496.582Z" stroke="#B5964D" stroke-opacity="0.04" stroke-width="3" stroke-miterlimit="10"/>
<path d="M-146.491 509.16C-146.489 538.838 -135.977 567.553 -113.326 588.187C-97.8084 602.316 -75.3441 612.418 -49.6398 611.498C-9.37481 610.074 27.8005 589.343 57.3569 565.703C76.2443 550.591 95.0451 535.358 113.461 520.419C122.513 513.058 131.465 505.765 140.229 498.54C180.326 465.287 227.062 448.055 282.449 430.563C307.925 422.523 334.911 413.879 359.608 403.915C391.939 390.882 433.013 367.64 439.321 343.698C440.197 340.211 440.629 336.717 440.607 333.269C440.391 328.279 440.61 323.231 441.261 318.159C443.755 303.511 456.247 285.968 468.968 269.441C489.588 242.62 507.608 211.194 498.131 182.904C488.396 153.783 456.956 135.96 421.391 128.745C397.476 123.926 371.93 122.924 346.085 125.792C319.179 128.783 292.443 136.858 263.655 143.039C208.808 154.866 152.591 167.394 107.203 195.357C75.0251 215.151 46.6666 241.71 12.4211 263.619C-31.2676 291.588 -81.8868 308.781 -103.072 345.047C-113.646 363.142 -113.91 382.545 -119.038 403.039C-127.583 437.767 -146.434 473.88 -146.491 509.16Z" stroke="#B5964D" stroke-opacity="0.04" stroke-width="3" stroke-miterlimit="10"/>
<path d="M-163.592 521.765C-163.644 552.374 -152.429 581.859 -128.853 602.908C-112.701 617.346 -89.5592 627.575 -63.0959 626.886C-20.9044 625.79 18.8017 605.365 50.9153 581.409C71.3577 566.142 91.5912 550.438 111.152 534.848C120.757 527.177 130.195 519.52 139.355 511.912C181.678 476.522 230.874 458.968 288.945 440.769C316.687 432.069 346.108 422.599 372.934 411.533C407.767 397.218 452.891 370.942 457.507 344.064C458.12 340.138 458.193 336.237 457.725 332.431C457.162 327.067 456.145 321.778 456.659 315.712C457.973 299.457 471.042 279.988 484.569 261.799C506.408 232.398 526.091 197.893 514.223 167.327C502.496 137.097 467.675 119.766 429.417 113.732C403.788 109.664 376.698 109.566 349.504 113.441C321.174 117.446 293.384 126.821 263.084 133.654C205.441 146.611 146.252 158.642 97.6237 187.048C63.5886 206.933 32.9203 233.779 -2.84093 256.685C-48.4092 285.941 -99.8086 305.92 -119.672 344.373C-129.957 364.276 -128.962 385.179 -133.92 407.331C-142.214 444.847 -163.517 483.661 -163.592 521.765Z" stroke="#B5964D" stroke-opacity="0.04" stroke-width="3" stroke-miterlimit="10"/>
<path d="M-180.739 534.358C-180.859 565.892 -168.932 596.137 -144.421 617.634C-127.631 632.351 -103.821 642.72 -76.5822 642.239C-32.4507 641.475 9.76402 621.363 44.4394 596.988C66.4452 581.554 88.103 565.391 108.817 549.139C118.974 541.157 128.857 533.156 138.464 525.133C183.074 487.643 234.637 469.75 295.455 450.853C325.468 441.508 357.39 431.147 386.288 419.033C423.705 403.345 472.865 374.031 475.731 344.299C476.076 339.938 475.784 335.638 474.862 331.485C473.692 325.583 472.008 319.794 472.08 313.129C472.217 295.285 485.907 273.95 500.156 254.023C523.233 222.065 544.673 184.469 530.3 151.615C516.633 120.253 478.427 103.442 437.535 98.4592C410.193 95.146 381.551 95.9519 352.993 100.838C323.214 106.013 294.277 116.82 262.503 124.227C202.133 138.341 139.979 149.891 88.0768 178.713C52.2011 198.664 19.0872 225.791 -18.0623 249.712C-65.5268 280.278 -117.608 303.004 -136.239 343.673C-146.225 365.37 -143.977 387.757 -148.778 411.563C-156.725 451.976 -180.605 493.445 -180.739 534.358Z" stroke="#B5964D" stroke-opacity="0.04" stroke-width="3" stroke-miterlimit="10"/>
<path d="M-197.859 547.009C-198.017 579.45 -185.381 610.482 -159.932 632.399C-142.522 647.419 -118.035 657.915 -90.0283 657.654C-43.9567 657.222 0.783882 637.4 38.0975 612.693C61.667 597.093 84.7491 580.472 106.613 563.585C117.333 555.288 127.697 546.93 137.704 538.511C184.471 498.858 238.527 480.67 301.995 461.04C334.279 451.051 368.671 439.817 399.632 426.621C439.578 409.661 492.775 377.309 493.944 344.622C494.011 339.824 493.354 335.126 491.988 330.627C490.226 324.192 487.859 317.897 487.503 310.638C486.45 291.199 500.697 267.87 515.792 246.371C540.097 211.82 563.215 171.076 546.435 136.015C530.829 103.444 489.147 87.1351 445.673 83.2539C416.626 80.6869 386.431 82.4025 356.506 88.3197C325.292 94.5504 295.26 106.763 262.021 114.779C198.809 129.991 133.681 141.073 78.5412 170.308C40.8642 190.295 5.32872 217.742 -33.2727 242.669C-82.6249 274.534 -135.35 300.051 -152.794 342.903C-162.388 366.46 -158.995 390.335 -163.599 415.765C-171.308 459.081 -197.688 503.219 -197.859 547.009Z" stroke="#B5964D" stroke-opacity="0.04" stroke-width="3" stroke-miterlimit="10"/>
<path d="M-215.065 559.557C-215.269 592.915 -201.943 624.714 -175.573 647.074C-157.519 662.39 -132.356 673.014 -103.574 672.96C-55.5841 672.868 -8.32621 653.347 31.6068 628.288C56.7732 612.447 81.022 595.624 104.241 577.898C115.504 569.297 126.395 560.559 136.831 551.776C185.83 510.002 242.323 491.5 308.491 471.14C343.025 460.513 379.93 448.467 412.962 434.178C455.487 415.902 512.726 380.453 512.135 344.923C511.923 339.679 510.903 334.574 509.096 329.719C506.719 322.757 503.697 315.967 502.877 308.116C500.669 287.08 515.467 261.814 531.381 238.658C556.906 201.527 581.802 157.639 562.501 120.36C545.036 86.64 499.967 70.9267 453.731 68.2018C422.968 66.3563 391.195 68.9567 359.868 75.8838C327.229 83.2038 296.084 96.8006 261.376 105.409C195.368 121.752 127.321 132.385 68.888 162.013C29.451 182.051 -8.49236 209.823 -48.5679 235.763C-99.8492 268.911 -153.123 297.209 -169.41 342.263C-178.581 367.587 -174.077 392.999 -178.543 420.135C-185.881 466.193 -214.769 513.012 -215.065 559.557Z" stroke="#B5964D" stroke-opacity="0.04" stroke-width="3" stroke-miterlimit="10"/>
<path d="M-232.19 572.107C-232.455 606.378 -218.419 638.965 -191.12 661.756C-172.429 677.351 -146.592 688.131 -117.048 688.28C-67.0961 688.513 -17.3483 669.284 25.1818 643.879C51.9158 627.881 77.5525 610.633 101.924 592.25C113.739 583.338 125.108 574.248 135.894 565.05C187.119 521.138 246.063 502.327 314.909 481.244C351.729 469.977 391.095 457.071 426.243 441.673C471.318 422.073 532.568 383.62 530.286 345.152C529.793 339.477 528.416 333.978 526.187 328.777C523.189 321.272 519.499 313.98 518.25 305.537C514.852 282.905 530.248 255.781 546.94 230.906C573.797 191.206 600.406 144.12 578.549 104.67C559.217 69.7391 510.67 54.6031 461.734 52.9971C429.306 51.9203 396.013 55.4471 363.348 63.4191C329.302 71.8047 297.034 86.7977 260.857 95.9979C192.058 113.488 121.087 123.656 59.3755 153.683C18.0532 173.8 -22.2832 201.828 -63.8657 228.753C-117.002 263.227 -170.827 294.215 -186.051 341.526C-194.787 368.651 -189.176 395.583 -193.421 424.306C-200.474 473.3 -231.861 522.788 -232.19 572.107Z" stroke="#B5964D" stroke-opacity="0.04" stroke-width="3" stroke-miterlimit="10"/>
<path d="M-249.39 584.765C-249.701 619.955 -234.91 653.241 -206.737 676.518C-187.413 692.42 -160.907 703.34 -130.524 703.705C-78.6664 704.318 -26.3945 685.333 18.7467 659.587C47.0487 643.402 74.0965 625.707 99.661 606.651C112.015 597.425 123.885 587.976 135.075 578.383C188.504 532.34 249.899 513.22 321.437 491.418C360.515 479.503 402.398 465.756 439.603 449.259C487.214 428.328 552.542 386.805 548.576 345.508C547.769 339.357 545.969 333.432 543.22 327.874C539.629 319.835 535.256 312.038 533.565 302.996C528.999 278.762 545.006 249.663 562.462 223.185C590.539 180.905 618.974 130.633 594.552 89.0238C573.339 52.8759 521.258 38.2973 469.72 37.8456C435.599 37.5109 400.751 41.9401 366.704 50.9387C331.246 60.4189 297.879 76.8013 260.219 86.5886C188.638 105.215 114.717 114.953 49.7291 145.348C6.5851 165.553 -36.1614 193.861 -79.1542 221.807C-134.07 257.574 -188.418 291.307 -202.562 340.807C-210.849 369.738 -204.138 398.172 -208.216 428.538C-215.05 480.413 -248.946 532.582 -249.39 584.765Z" stroke="#B5964D" stroke-opacity="0.04" stroke-width="3" stroke-miterlimit="10"/>
<path d="M-266.567 597.359C-266.91 633.471 -251.464 667.57 -222.377 691.228C-202.415 707.409 -175.25 718.479 -144.147 719.032C-90.2335 720.035 -35.5184 701.31 12.268 675.176C42.1164 658.824 70.5608 640.688 97.3017 620.96C110.209 611.423 122.557 601.622 134.151 591.635C189.806 543.454 253.635 524.048 327.825 501.56C369.188 489.005 413.5 474.37 452.823 456.811C502.999 434.559 572.36 390.026 566.611 345.772C565.587 339.19 563.5 332.867 560.398 326.951C556.191 318.386 551.184 310.04 549.022 300.464C543.264 274.634 559.858 243.597 578.12 215.457C607.459 170.536 637.708 117.119 610.695 73.3408C587.636 35.9745 532.129 22.0225 477.858 22.663C442.05 23.073 405.646 28.4101 370.217 38.4444C333.321 49.0091 298.863 66.7691 259.748 77.1535C185.371 96.9109 108.445 106.198 40.2451 136.971C-4.72042 157.264 -49.8771 185.85 -94.3215 214.802C-151.205 251.883 -205.985 288.26 -219.168 340.116C-226.963 370.839 -219.194 400.789 -223.102 432.814C-229.645 487.521 -266.041 542.359 -266.567 597.359Z" stroke="#B5964D" stroke-opacity="0.04" stroke-width="3" stroke-miterlimit="10"/>
<path d="M-283.732 609.958C-284.096 646.953 -268.006 681.906 -237.9 705.967C-217.317 722.451 -189.47 733.666 -157.583 734.414C-101.894 735.736 -44.5855 717.28 5.75596 690.86C37.1484 674.341 66.9989 655.761 94.9316 635.356C108.405 625.514 121.227 615.344 133.225 604.962C191.098 554.655 257.386 534.928 334.31 511.663C377.915 498.482 424.711 482.979 466.133 464.336C518.854 440.742 592.275 393.162 584.782 346.041C583.461 339.035 580.997 332.331 577.448 326.086C572.634 316.983 566.938 308.189 564.368 297.967C557.428 270.529 574.53 237.54 593.65 207.786C624.145 160.276 656.332 103.638 626.723 57.7195C601.814 19.1178 542.828 5.74355 485.859 7.54927C448.352 8.67938 410.376 14.9078 373.541 25.9701C335.32 37.631 299.723 56.8113 259.138 67.7878C181.974 88.6643 102.156 97.5876 30.6361 128.668C-16.1374 149.054 -63.7097 177.902 -109.614 207.872C-168.372 246.257 -223.637 285.377 -235.794 339.448C-243.1 371.946 -234.306 403.431 -237.998 437.102C-244.229 494.635 -282.978 552.106 -283.732 609.958Z" stroke="#B5964D" stroke-opacity="0.04" stroke-width="3" stroke-miterlimit="10"/>
<path d="M-300.908 622.571C-301.263 660.503 -284.507 696.183 -253.503 720.694C-232.3 737.481 -203.762 748.828 -171.1 749.784C-113.473 751.467 -53.6495 733.268 -0.696651 706.507C32.2319 689.828 63.4921 670.81 92.6264 649.733C106.452 639.737 119.709 629.237 132.341 618.277C192.454 565.837 261.171 545.808 340.796 521.812C386.673 507.987 435.939 491.611 479.452 471.895C534.715 446.987 612.182 396.356 602.971 346.332C601.367 338.887 598.537 331.785 594.549 325.196C589.142 315.56 582.764 306.26 579.752 295.439C571.634 266.411 589.383 231.519 609.24 200.077C641.001 150.019 675.029 90.124 642.789 42.0674C616.055 2.1944 553.561 -10.5372 493.919 -7.60194C454.749 -5.71767 415.24 1.42086 377.04 13.5159C337.333 26.2294 300.623 46.7944 258.56 58.375C178.614 80.3876 95.8633 88.8567 21.0159 120.378C-27.5656 140.856 -77.6047 170.038 -124.91 200.942C-185.534 240.572 -241.224 282.4 -252.41 338.739C-259.201 373.023 -249.367 406.049 -252.898 441.345C-258.828 501.744 -300.09 561.925 -300.908 622.571Z" stroke="#B5964D" stroke-opacity="0.04" stroke-width="3" stroke-miterlimit="10"/>
<path d="M-318.092 635.167C-318.492 674.017 -301.033 710.468 -269.085 735.415C-247.219 752.444 -218.051 764.007 -184.618 765.154C-125.069 767.194 -62.7205 749.239 -7.16454 722.149C27.2881 705.318 59.9526 685.864 90.2839 664.112C104.646 653.819 118.386 642.97 131.44 631.616C193.765 577.033 264.925 556.707 347.227 531.988C395.39 517.523 447.119 500.286 492.731 479.487C550.54 453.236 632.185 399.54 621.107 346.649C619.225 338.764 616.037 331.262 611.62 324.325C605.597 314.162 598.549 304.361 595.1 292.958C585.799 262.322 604.101 225.54 624.781 192.411C657.753 139.783 693.676 76.6062 658.819 26.4619C630.244 -14.6585 564.248 -26.8053 501.939 -22.7233C461.103 -20.1101 420.05 -12.0744 380.473 1.05275C339.309 14.8291 301.492 36.8417 258.008 48.9718C175.266 72.1155 89.5707 80.1712 11.4893 112.002C-38.8864 132.577 -91.3094 161.927 -140.162 193.923C-202.694 234.905 -258.805 279.41 -268.987 338.046C-275.253 374.103 -264.385 408.652 -267.767 445.615C-273.416 508.858 -317.192 571.704 -318.092 635.167Z" stroke="#B5964D" stroke-opacity="0.04" stroke-width="3" stroke-miterlimit="10"/>
<path d="M-335.272 647.78C-335.724 687.531 -317.556 724.769 -284.692 750.142C-262.209 767.503 -232.375 779.159 -198.131 780.512C-136.653 782.925 -71.803 765.222 -13.6217 737.797C22.3497 720.812 56.4186 700.915 87.9466 678.479C102.866 667.869 117.107 656.647 130.594 644.872C195.146 588.151 268.785 567.646 353.723 542.069C404.171 527.039 458.357 508.849 506.06 486.978C566.411 459.413 652.102 402.665 639.297 346.883C637.394 338.378 633.397 330.806 628.731 323.366C622.101 312.664 614.385 302.362 610.494 290.361C600.029 258.139 618.928 219.377 640.381 184.633C674.619 129.457 712.414 63.004 674.92 10.7042C644.51 -31.6754 575.016 -43.1913 510.012 -37.9728C467.492 -34.6195 424.88 -25.6722 383.912 -11.4956C341.359 3.36886 302.449 26.7134 257.44 39.4903C171.902 63.7651 83.2536 71.4191 1.91282 103.594C-50.343 124.266 -105.142 153.968 -155.415 186.951C-219.857 229.238 -276.366 276.414 -285.594 337.343C-291.313 375.167 -279.45 411.27 -282.574 449.893C-288.02 515.968 -334.325 581.548 -335.272 647.78Z" stroke="#B5964D" stroke-opacity="0.04" stroke-width="3" stroke-miterlimit="10"/>
<path d="M-352.445 660.381C-352.952 701.062 -334.093 739.065 -300.286 764.874C-277.174 782.526 -246.57 794.374 -211.611 795.823C-148.244 798.64 -80.8605 781.17 -20.0928 753.44C17.4024 736.294 52.8914 715.949 85.6404 692.828C101.087 681.92 115.798 670.343 129.687 658.166C196.471 599.324 272.547 578.505 360.2 552.202C412.911 536.54 469.574 517.494 519.343 494.586C582.273 465.63 671.977 405.878 657.467 347.197C655.296 338.263 650.829 330.278 645.813 322.499C638.59 311.264 630.246 300.476 625.871 287.861C614.214 254.043 633.691 213.353 655.925 176.982C691.333 119.221 731.092 49.5114 690.937 -4.86243C658.679 -48.5064 585.679 -59.4084 518.042 -53.0907C473.844 -48.9972 429.676 -39.1427 387.317 -23.9242C343.347 -7.98164 303.324 16.7478 256.837 30.1289C168.525 55.528 76.9094 62.7754 -7.6911 95.2955C-61.7701 116.13 -118.941 145.959 -170.674 179.96C-236.996 223.533 -293.902 273.381 -302.186 336.615C-307.358 376.205 -294.49 413.852 -297.476 454.107C-302.61 523.083 -351.396 591.28 -352.445 660.381Z" stroke="#B5964D" stroke-opacity="0.04" stroke-width="3" stroke-miterlimit="10"/>
<path d="M-369.661 672.967C-370.132 714.708 -350.974 752.703 -315.902 779.585C-292.188 797.517 -260.966 809.5 -225.222 811.266C-159.902 814.421 -90.0075 797.191 -26.6196 769.108C12.3791 751.819 49.2739 731.041 83.2307 707.245C99.218 696.039 114.416 684.108 128.727 671.531C197.723 610.545 276.195 589.397 366.595 562.397C421.579 546.091 480.712 526.171 532.606 502.143C598.031 471.917 691.822 409.081 675.575 347.521C673.132 338.14 668.273 329.801 662.796 321.597C654.948 309.847 645.902 298.531 641.117 285.344C628.291 249.924 648.36 207.312 671.403 169.249C708.022 108.919 749.721 35.9122 706.89 -20.5406C672.876 -65.4305 596.29 -75.8236 525.955 -68.2196C480.098 -63.4013 434.392 -52.6297 390.673 -36.3382C345.301 -19.3125 304.142 6.80876 256.199 20.7871C165.106 47.3224 70.523 54.1631 -17.3424 87.011C-73.2039 107.902 -132.825 138.041 -186.01 173.048C-254.179 217.889 -311.439 270.394 -318.847 335.982C-323.459 377.345 -309.601 416.528 -312.457 458.428C-317.217 530.192 -368.498 601.076 -369.661 672.967Z" stroke="#B5964D" stroke-opacity="0.04" stroke-width="3" stroke-miterlimit="10"/>
<path d="M-386.819 685.592C-387.273 728.245 -367.537 767.026 -331.486 794.324C-307.102 812.562 -275.235 824.691 -238.695 826.612C-171.455 830.153 -99.0471 813.013 -33.0136 784.737C7.48713 767.275 45.8025 746.057 81.007 721.597C97.5366 710.089 113.22 697.799 127.947 684.814C199.175 621.707 280.121 600.243 373.176 572.527C430.419 555.571 492.032 534.766 546.008 509.677C614.007 478.118 711.814 412.249 693.862 347.79C691.151 337.98 685.907 329.229 680.063 320.71C671.594 308.417 661.871 296.612 656.694 282.83C642.676 245.813 663.331 201.261 687.164 161.559C724.993 98.6598 768.632 22.3568 723.14 -36.1701C687.252 -82.4093 607.226 -92.1341 534.161 -83.3454C486.602 -77.8165 439.308 -66.1474 394.171 -48.8047C347.368 -30.7059 305.098 -3.15373 255.712 11.381C161.822 39.0476 64.2775 45.4985 -26.8392 78.6792C-88.7497 101.424 -147.512 130.854 -201.257 166.034C-271.339 212.209 -329.016 267.364 -335.411 335.237C-339.481 378.349 -324.636 419.099 -327.331 462.624C-331.811 537.308 -385.608 610.856 -386.819 685.592Z" stroke="#B5964D" stroke-opacity="0.04" stroke-width="3" stroke-miterlimit="10"/>
<path d="M-403.997 698.192C-404.442 741.763 -384.122 781.336 -347.077 809.043C-322.059 827.589 -289.546 839.863 -252.283 841.943C-183.128 845.853 -108.211 829.027 -39.5817 800.361C2.41186 782.744 42.1312 761.082 78.5453 735.935C95.6083 724.127 111.77 711.48 126.907 698.09C200.361 632.845 283.77 611.032 379.491 582.633C439.048 565.048 503.087 543.384 559.171 517.198C629.671 484.31 731.561 415.387 711.895 348.041C708.925 337.79 703.28 328.651 697.009 319.78C687.946 306.953 677.579 294.612 671.893 280.251C656.731 241.596 677.921 195.176 702.569 153.8C741.669 88.2471 787.191 8.70221 739.043 -51.8817C701.29 -99.3612 617.669 -108.444 542.057 -98.555C492.835 -92.2902 443.994 -79.7265 397.467 -61.3604C349.317 -42.1581 305.93 -13.1921 255.069 1.91796C158.375 30.7277 57.9468 36.8021 -36.4762 70.2953C-95.9708 91.3951 -160.471 122.025 -216.531 159.054C-288.44 206.565 -346.55 264.318 -352.025 334.531C-355.517 379.392 -339.635 421.711 -342.186 466.886C-346.42 544.416 -402.713 620.651 -403.997 698.192Z" stroke="#B5964D" stroke-opacity="0.04" stroke-width="3" stroke-miterlimit="10"/>
<path d="M-421.19 710.79C-421.617 755.284 -400.712 795.651 -362.677 823.776C-337.036 842.596 -303.856 855.085 -265.742 857.34C-194.683 861.705 -117.218 845.043 -45.9896 816.03C-2.48995 798.281 38.6463 776.175 76.272 750.329C93.8856 738.208 110.542 725.189 126.103 711.38C201.776 644.009 287.61 621.922 386.023 592.806C447.789 574.567 514.346 552.062 572.53 524.792C645.618 490.576 751.51 418.614 730.116 348.377C726.873 337.679 720.854 328.162 714.159 318.91C704.481 305.556 693.419 292.749 687.33 277.759C670.942 237.556 692.752 189.149 718.215 146.097C758.534 77.963 806.015 -4.85677 755.155 -67.5181C715.594 -116.293 628.516 -124.684 550.171 -113.701C499.291 -106.676 448.916 -93.1988 401.009 -73.7965C351.31 -53.5495 306.844 -23.246 254.424 -7.5161C154.948 22.43 51.58 28.1075 -46.1307 61.9354C-107.442 83.1396 -174.317 114.046 -231.819 151.994C-305.684 200.899 -364.121 261.275 -368.64 333.827C-371.554 380.436 -354.749 424.314 -357.078 471.151C-361.017 551.531 -419.825 630.431 -421.19 710.79Z" stroke="#B5964D" stroke-opacity="0.04" stroke-width="3" stroke-miterlimit="10"/>
<path d="M-438.379 723.403C-438.783 768.809 -417.3 809.961 -378.293 838.504C-351.953 857.639 -318.152 870.235 -279.208 872.718C-206.281 877.42 -126.272 861.025 -52.4679 831.674C-7.47529 813.785 35.0741 791.241 73.9196 764.71C92.0393 752.299 109.154 738.941 125.116 724.753C203.002 655.238 291.282 632.826 392.426 602.961C456.41 584.057 525.493 560.699 585.76 532.369C661.376 496.833 771.325 421.806 748.225 348.67C744.714 337.543 738.294 327.638 731.18 318.022C720.894 304.129 709.163 290.822 702.609 275.24C685.052 233.433 707.448 183.087 733.683 138.419C775.231 67.6919 824.652 -18.4246 771.121 -83.1481C729.715 -133.216 639.125 -140.935 558.107 -128.822C505.538 -121.091 453.586 -106.723 404.268 -86.2765C353.23 -64.9378 307.65 -33.2493 253.799 -16.8831C151.535 14.1824 45.2421 19.5889 -55.7568 53.6307C-118.864 75.0071 -188.154 106.1 -247.173 145.121C-322.831 195.193 -381.621 258.227 -385.256 333.122C-387.592 381.479 -369.822 426.93 -371.963 475.404C-375.628 558.64 -436.946 640.223 -438.379 723.403Z" stroke="#B5964D" stroke-opacity="0.04" stroke-width="3" stroke-miterlimit="10"/>
<path d="M71.5868 779.095C90.2711 766.38 107.89 752.654 124.282 738.044C204.4 666.409 295.104 643.678 398.941 613.097C465.261 593.557 536.758 569.336 599.18 539.942C677.365 503.057 791.346 425.003 766.511 348.986C757.283 320.716 729.933 300.096 718.125 272.733C699.391 229.335 722.352 177.056 749.415 130.673C792.197 57.3688 843.551 -32.0322 787.346 -98.8359C744.123 -150.188 650.008 -157.24 566.311 -144.015C512.078 -135.539 458.578 -120.267 407.867 -98.7881C355.39 -76.3648 308.702 -43.2745 253.376 -26.3336C148.279 5.86397 38.9914 10.8522 -65.2386 45.2933C-213.592 94.2734 -397.05 195.016 -401.857 332.411C-403.603 382.521 -384.882 429.541 -386.858 479.657C-390.213 565.72 -454.045 650.012 -455.527 735.963C-456.908 813.718 -390.479 881.434 -292.791 888.019C-171.962 896.239 -31.2825 849.327 71.5868 779.095Z" stroke="#B5964D" stroke-opacity="0.04" stroke-width="3" stroke-miterlimit="10"/>
</svg>
