<svg width="40" height="40" viewBox="0 0 40 40" fill="none" xmlns="http://www.w3.org/2000/svg">
<g id="RiYoutubeFill 1">
<path id="Vector" d="M35.905 10.8298C36.6667 13.7998 36.6667 19.9998 36.6667 19.9998C36.6667 19.9998 36.6667 26.1998 35.905 29.1698C35.4817 30.8115 34.2434 32.1032 32.675 32.5398C29.8267 33.3332 20 33.3332 20 33.3332C20 33.3332 10.1784 33.3332 7.32504 32.5398C5.75004 32.0965 4.51337 30.8065 4.09504 29.1698C3.33337 26.1998 3.33337 19.9998 3.33337 19.9998C3.33337 19.9998 3.33337 13.7998 4.09504 10.8298C4.51837 9.18817 5.75671 7.8965 7.32504 7.45984C10.1784 6.6665 20 6.6665 20 6.6665C20 6.6665 29.8267 6.6665 32.675 7.45984C34.25 7.90317 35.4867 9.19317 35.905 10.8298ZM16.6667 25.8332L26.6667 19.9998L16.6667 14.1665V25.8332Z" fill="#B5964D"/>
</g>
</svg>
